<svg width="71" height="68" viewBox="0 0 71 68" fill="none" xmlns="http://www.w3.org/2000/svg">
<g filter="url(#filter0_d_16_5)">
<rect x="0.729492" y="0.746094" width="62.1553" height="58.4819" rx="5" fill="#29273F" shape-rendering="crispEdges"/>
<g filter="url(#filter1_i_16_5)">
<rect x="3.72949" y="3.74609" width="56.1553" height="52.4819" rx="5" fill="#110F25"/>
<rect x="3.97949" y="3.99609" width="55.6553" height="51.9819" rx="4.75" stroke="#5F56E0" stroke-width="0.5"/>
<rect x="8.48145" y="6.81738" width="8.7805" height="3" rx="1.5" fill="#D9D9D9"/>
<rect x="25.1445" y="6.81738" width="13.2289" height="3" rx="1.5" fill="#D9D9D9"/>
<rect x="46.2563" y="6.81738" width="9.22532" height="3" rx="1.5" fill="#D9D9D9"/>
<path d="M30.9162 23.7992H24.9077C24.8651 23.302 24.7514 22.851 24.5668 22.4462C24.3892 22.0414 24.1406 21.6934 23.821 21.4022C23.5085 21.1039 23.1286 20.8766 22.6811 20.7203C22.2337 20.557 21.7259 20.4753 21.1577 20.4753C20.1634 20.4753 19.3217 20.7168 18.6328 21.1998C17.951 21.6827 17.4325 22.3752 17.0774 23.2772C16.7294 24.1792 16.5554 25.2623 16.5554 26.5265C16.5554 27.8617 16.733 28.9803 17.0881 29.8823C17.4503 30.7772 17.9723 31.4519 18.6541 31.9064C19.3359 32.3539 20.1563 32.5776 21.1151 32.5776C21.6619 32.5776 22.152 32.5101 22.5852 32.3752C23.0185 32.2331 23.3949 32.0307 23.7145 31.7679C24.0341 31.5051 24.2933 31.1891 24.4922 30.8198C24.6982 30.4434 24.8366 30.0208 24.9077 29.552L30.9162 29.5946C30.8452 30.5179 30.5859 31.459 30.1385 32.4178C29.6911 33.3695 29.0554 34.2502 28.2315 35.0598C27.4148 35.8624 26.4027 36.5087 25.1953 36.9988C23.9879 37.4888 22.5852 37.7338 20.9872 37.7338C18.9844 37.7338 17.1875 37.3042 15.5966 36.4448C14.0128 35.5854 12.7592 34.3212 11.8359 32.6522C10.9197 30.9831 10.4616 28.9412 10.4616 26.5265C10.4616 24.0975 10.9304 22.052 11.8679 20.3901C12.8054 18.7211 14.0696 17.4604 15.6605 16.6081C17.2514 15.7488 19.027 15.3191 20.9872 15.3191C22.3651 15.3191 23.6328 15.5073 24.7905 15.8837C25.9482 16.2601 26.9638 16.8105 27.8374 17.535C28.7109 18.2523 29.4141 19.1365 29.9467 20.1877C30.4794 21.2388 30.8026 22.4426 30.9162 23.7992ZM41.9984 37.4355H33.6035V15.6174H41.9132C44.1575 15.6174 46.0964 16.0542 47.7299 16.9277C49.3706 17.7942 50.6348 19.0442 51.5226 20.6777C52.4174 22.3042 52.8649 24.2537 52.8649 26.5265C52.8649 28.7992 52.421 30.7523 51.5332 32.3858C50.6454 34.0123 49.3883 35.2623 47.7619 36.1358C46.1355 37.0023 44.2143 37.4355 41.9984 37.4355ZM39.5268 32.4071H41.7853C42.8649 32.4071 43.7846 32.2331 44.5446 31.8851C45.3116 31.5371 45.894 30.937 46.2917 30.0847C46.6966 29.2324 46.899 28.0463 46.899 26.5265C46.899 25.0066 46.693 23.8205 46.2811 22.9682C45.8762 22.1159 45.2797 21.5158 44.4913 21.1678C43.7101 20.8198 42.7512 20.6458 41.6149 20.6458H39.5268V32.4071Z" fill="white"/>
<path d="M13.4296 50.8174V39.9083H20.6526V41.8099H15.7361V44.4094H20.1732V46.311H15.7361V50.8174H13.4296ZM25.9306 39.9083V50.8174H23.6614V39.9083H25.9306ZM32.945 50.9772C32.1176 50.9772 31.4021 50.8014 30.7984 50.4498C30.1982 50.0947 29.7348 49.6011 29.4081 48.969C29.0814 48.3334 28.9181 47.5965 28.9181 46.7584C28.9181 45.9133 29.0814 45.1746 29.4081 44.5425C29.7348 43.9069 30.1982 43.4133 30.7984 43.0617C31.4021 42.7066 32.1176 42.529 32.945 42.529C33.7725 42.529 34.4862 42.7066 35.0864 43.0617C35.6901 43.4133 36.1553 43.9069 36.482 44.5425C36.8087 45.1746 36.972 45.9133 36.972 46.7584C36.972 47.5965 36.8087 48.3334 36.482 48.969C36.1553 49.6011 35.6901 50.0947 35.0864 50.4498C34.4862 50.8014 33.7725 50.9772 32.945 50.9772ZM32.9557 49.2194C33.3321 49.2194 33.6464 49.1128 33.8985 48.8998C34.1507 48.6831 34.3406 48.3884 34.4685 48.0155C34.5999 47.6427 34.6656 47.2183 34.6656 46.7425C34.6656 46.2666 34.5999 45.8422 34.4685 45.4694C34.3406 45.0965 34.1507 44.8018 33.8985 44.5851C33.6464 44.3685 33.3321 44.2602 32.9557 44.2602C32.5757 44.2602 32.2561 44.3685 31.9969 44.5851C31.7412 44.8018 31.5477 45.0965 31.4163 45.4694C31.2884 45.8422 31.2245 46.2666 31.2245 46.7425C31.2245 47.2183 31.2884 47.6427 31.4163 48.0155C31.5477 48.3884 31.7412 48.6831 31.9969 48.8998C32.2561 49.1128 32.5757 49.2194 32.9557 49.2194ZM41.3564 50.8174L39.1299 42.6356H41.4257L42.6934 48.1327H42.768L44.089 42.6356H46.3422L47.6846 48.1008H47.7538L49.0003 42.6356H51.2907L49.0695 50.8174H46.6672L45.2609 45.6718H45.1597L43.7535 50.8174H41.3564Z" fill="url(#paint0_linear_16_5)"/>
</g>
</g>
<defs>
<filter id="filter0_d_16_5" x="0.729492" y="0.746094" width="70.1553" height="66.4819" filterUnits="userSpaceOnUse" color-interpolation-filters="sRGB">
<feFlood flood-opacity="0" result="BackgroundImageFix"/>
<feColorMatrix in="SourceAlpha" type="matrix" values="0 0 0 0 0 0 0 0 0 0 0 0 0 0 0 0 0 0 127 0" result="hardAlpha"/>
<feOffset dx="4" dy="4"/>
<feGaussianBlur stdDeviation="2"/>
<feComposite in2="hardAlpha" operator="out"/>
<feColorMatrix type="matrix" values="0 0 0 0 0 0 0 0 0 0 0 0 0 0 0 0 0 0 0.25 0"/>
<feBlend mode="normal" in2="BackgroundImageFix" result="effect1_dropShadow_16_5"/>
<feBlend mode="normal" in="SourceGraphic" in2="effect1_dropShadow_16_5" result="shape"/>
</filter>
<filter id="filter1_i_16_5" x="1.22949" y="1.24609" width="58.6553" height="54.9819" filterUnits="userSpaceOnUse" color-interpolation-filters="sRGB">
<feFlood flood-opacity="0" result="BackgroundImageFix"/>
<feBlend mode="normal" in="SourceGraphic" in2="BackgroundImageFix" result="shape"/>
<feColorMatrix in="SourceAlpha" type="matrix" values="0 0 0 0 0 0 0 0 0 0 0 0 0 0 0 0 0 0 127 0" result="hardAlpha"/>
<feOffset dx="-4" dy="-4"/>
<feGaussianBlur stdDeviation="1.25"/>
<feComposite in2="hardAlpha" operator="arithmetic" k2="-1" k3="1"/>
<feColorMatrix type="matrix" values="0 0 0 0 0.132008 0 0 0 0 0.116875 0 0 0 0 0.283333 0 0 0 1 0"/>
<feBlend mode="normal" in2="shape" result="effect1_innerShadow_16_5"/>
</filter>
<linearGradient id="paint0_linear_16_5" x1="34.4814" y1="42.8174" x2="34.4814" y2="50.8174" gradientUnits="userSpaceOnUse">
<stop stop-color="white"/>
<stop offset="1" stop-color="#5B50E6"/>
</linearGradient>
</defs>
</svg>
